# xmcd CD database file
#
# Track frame offsets:
#	150
#	23984
#	42579
#	58239
#	74449
#
# Disc length: 1166 seconds
#
# Revision: 0
# Processed by: cddbd v1.5PL3 Copyright (c) Steve Scherf et al.
# Submitted via: CDex 1.51
#
DISCID=49048c05
DTITLE=Kenneth Clarke - Rich Daniels - Kenneth Clarke - Rich Daniels
DYEAR=2004
DGENRE=Country
TTITLE0=I Can't Sing the Blues No More
TTITLE1=Don't Rule Me Out of Your Life
TTITLE2=The Point
TTITLE3=Third Time Lucky
TTITLE4=Three Words
EXTD=YEAR: 2004
EXTT0=
EXTT1=
EXTT2=
EXTT3=
EXTT4=
PLAYORDER=
